<svg width="881" height="572" viewBox="0 0 881 572" fill="none" xmlns="http://www.w3.org/2000/svg">
<path d="M584 0.5C540.333 48 454.8 170 462 278" stroke="url(#paint0_linear_16_227)"/>
<path d="M522.5 17.5C478.833 65 445.8 179.5 453 287.5" stroke="url(#paint1_linear_16_227)"/>
<path d="M471 16C452 82 436.5 253.5 436.5 307.5" stroke="url(#paint2_linear_16_227)"/>
<path d="M303.5 10C347.167 57.5 428.2 202.5 421 310.5" stroke="url(#paint3_linear_16_227)"/>
<path d="M365 10C408.667 57.5 437.2 212 430 320" stroke="url(#paint4_linear_16_227)"/>
<path d="M414 13C433.253 85.3321 435 266.819 435 326" stroke="url(#paint5_linear_16_227)"/>
<ellipse cx="452" cy="407" rx="271" ry="165" fill="url(#paint6_radial_16_227)"/>
<circle cx="440" cy="356" r="90" fill="url(#paint7_linear_16_227)"/>
<g filter="url(#filter0_d_16_227)">
<path fill-rule="evenodd" clip-rule="evenodd" d="M478.508 315.891C478.508 318.14 476.685 319.963 474.435 319.963H406.436C404.187 319.963 402.364 318.14 402.364 315.891V315.891C402.364 313.641 404.187 311.818 406.436 311.818H474.435C476.685 311.818 478.508 313.641 478.508 315.891V315.891Z" fill="white"/>
<path fill-rule="evenodd" clip-rule="evenodd" d="M478.508 397.746C478.508 399.995 476.685 401.818 474.435 401.818H406.436C404.187 401.818 402.364 399.995 402.364 397.746V397.746C402.364 395.496 404.187 393.673 406.436 393.673H474.435C476.685 393.673 478.508 395.496 478.508 397.746V397.746Z" fill="white"/>
<path d="M449.002 315.891L417.592 355.866L449.002 398.698" stroke="white" stroke-width="8"/>
</g>
<path d="M880.5 409.5C880.5 427.832 868.33 445.393 846.091 461.448C823.862 477.494 791.665 491.966 751.835 504.128C672.179 528.449 562.105 543.5 440.5 543.5C318.895 543.5 208.821 528.449 129.165 504.128C89.3346 491.966 57.1376 477.494 34.9093 461.448C12.6695 445.393 0.5 427.832 0.5 409.5C0.5 391.168 12.6695 373.607 34.9093 357.552C57.1376 341.506 89.3346 327.034 129.165 314.872C208.821 290.551 318.895 275.5 440.5 275.5C562.105 275.5 672.179 290.551 751.835 314.872C791.665 327.034 823.862 341.506 846.091 357.552C868.33 373.607 880.5 391.168 880.5 409.5Z" stroke="url(#paint8_linear_16_227)"/>
<path d="M826.5 409.5C826.5 427.863 815.931 445.427 796.661 461.469C777.393 477.509 749.482 491.975 714.949 504.134C645.886 528.451 550.445 543.5 445 543.5C339.555 543.5 244.114 528.451 175.051 504.134C140.518 491.975 112.607 477.509 93.3393 461.469C74.0687 445.427 63.5 427.863 63.5 409.5C63.5 391.137 74.0687 373.573 93.3393 357.531C112.607 341.491 140.518 327.025 175.051 314.866C244.114 290.549 339.555 275.5 445 275.5C550.445 275.5 645.886 290.549 714.949 314.866C749.482 327.025 777.393 341.491 796.661 357.531C815.931 373.573 826.5 391.137 826.5 409.5Z" stroke="url(#paint9_linear_16_227)"/>
<path d="M802.5 409.5C802.5 427.882 792.877 445.45 775.354 461.485C757.831 477.52 732.448 491.983 701.039 504.14C638.225 528.452 551.414 543.5 455.5 543.5C359.586 543.5 272.775 528.452 209.961 504.14C178.552 491.983 153.169 477.52 135.646 461.485C118.123 445.45 108.5 427.882 108.5 409.5C108.5 391.118 118.123 373.55 135.646 357.515C153.169 341.48 178.552 327.017 209.961 314.86C272.775 290.548 359.586 275.5 455.5 275.5C551.414 275.5 638.225 290.548 701.039 314.86C732.448 327.017 757.831 341.48 775.354 357.515C792.877 373.55 802.5 391.118 802.5 409.5Z" stroke="url(#paint10_linear_16_227)"/>
<path d="M597.5 340.5C597.5 416.114 529.275 477.5 445 477.5C360.725 477.5 292.5 416.114 292.5 340.5C292.5 264.886 360.725 203.5 445 203.5C529.275 203.5 597.5 264.886 597.5 340.5Z" stroke="url(#paint11_linear_16_227)"/>
<path d="M591.5 376C591.5 398.38 575.177 418.746 548.555 433.546C521.95 448.336 485.162 457.5 444.5 457.5C403.838 457.5 367.05 448.336 340.445 433.546C313.823 418.746 297.5 398.38 297.5 376C297.5 353.62 313.823 333.254 340.445 318.454C367.05 303.664 403.838 294.5 444.5 294.5C485.162 294.5 521.95 303.664 548.555 318.454C575.177 333.254 591.5 353.62 591.5 376Z" stroke="url(#paint12_linear_16_227)"/>
<path d="M853.093 363.749C853.093 362.196 851.426 360.725 848.87 359.813C849.46 356.776 849.198 354.358 848.043 353.584C847.763 353.401 847.446 353.309 847.125 353.317V354.382C847.314 354.382 847.465 354.426 847.593 354.507C848.149 354.88 848.391 356.297 848.203 358.122C848.158 358.571 848.084 359.044 847.994 359.526C847.138 359.285 846.269 359.112 845.393 359.006C844.872 358.166 844.302 357.368 843.69 356.617C845.025 355.17 846.278 354.378 847.131 354.378V353.312C846.004 353.312 844.529 354.249 843.038 355.872C841.548 354.26 840.073 353.332 838.947 353.332V354.396C839.795 354.396 841.052 355.185 842.388 356.622C841.814 357.325 841.241 358.122 840.696 359.006C839.818 359.11 838.948 359.286 838.091 359.531C838.001 359.074 837.929 358.612 837.878 358.146C837.685 356.321 837.923 354.903 838.476 354.526C838.598 354.44 838.758 354.401 838.947 354.401V353.337C838.603 353.337 838.291 353.423 838.022 353.603C836.87 354.378 836.613 356.789 837.206 359.818C834.659 360.736 833 362.201 833 363.749C833 365.301 834.667 366.772 837.223 367.683C836.633 370.722 836.895 373.139 838.05 373.912C838.316 374.094 838.628 374.18 838.971 374.18C840.098 374.18 841.572 373.244 843.063 371.62C844.554 373.234 846.028 374.16 847.155 374.16C847.478 374.168 847.797 374.076 848.08 373.893C849.231 373.12 849.489 370.708 848.895 367.679C851.435 366.767 853.093 365.296 853.093 363.749ZM847.76 360.563C847.601 361.201 847.417 361.831 847.208 362.449C846.865 361.673 846.489 360.917 846.081 360.185C846.663 360.286 847.224 360.41 847.761 360.563H847.76ZM845.885 365.65C845.578 366.274 845.249 366.883 844.898 367.474C843.669 367.601 842.433 367.602 841.204 367.479C840.499 366.305 839.882 365.062 839.361 363.763C839.882 362.462 840.495 361.214 841.196 360.034C842.425 359.907 843.66 359.905 844.889 360.028C845.229 360.596 845.562 361.203 845.881 361.844C846.192 362.469 846.475 363.103 846.733 363.744C846.472 364.392 846.189 365.028 845.885 365.65V365.65ZM847.208 365.029C847.429 365.668 847.618 366.309 847.773 366.93C847.237 367.083 846.671 367.212 846.086 367.311C846.492 366.573 846.866 365.811 847.208 365.029V365.029ZM843.055 370.125C842.674 369.666 842.293 369.156 841.916 368.596C842.285 368.616 842.661 368.63 843.042 368.63C843.428 368.63 843.808 368.621 844.181 368.596C843.813 369.156 843.432 369.666 843.055 370.125ZM840.007 367.311C839.443 367.216 838.883 367.09 838.328 366.934C838.48 366.318 838.668 365.683 838.881 365.048C839.049 365.429 839.226 365.812 839.418 366.194C839.611 366.576 839.807 366.949 840.007 367.311ZM843.034 357.372C843.415 357.831 843.796 358.342 844.173 358.901C843.804 358.882 843.428 358.867 843.047 358.867C842.661 358.867 842.281 358.877 841.908 358.901C842.276 358.342 842.657 357.831 843.034 357.372ZM840.003 360.186C839.597 360.923 839.223 361.683 838.881 362.464C838.666 361.841 838.478 361.207 838.316 360.563C838.852 360.414 839.418 360.286 840.003 360.186ZM836.297 366.165C834.847 365.445 833.909 364.498 833.909 363.749C833.909 362.999 834.847 362.048 836.297 361.332C836.649 361.155 837.034 360.997 837.431 360.85C837.665 361.785 837.972 362.76 838.352 363.758C837.993 364.698 837.69 365.665 837.444 366.652C837.055 366.512 836.672 366.349 836.297 366.165V366.165ZM838.5 372.99C837.944 372.619 837.702 371.199 837.89 369.375C837.935 368.926 838.009 368.453 838.099 367.97C838.902 368.2 839.778 368.377 840.7 368.492C841.222 369.331 841.791 370.129 842.404 370.88C841.068 372.327 839.815 373.12 838.963 373.12C838.802 373.122 838.643 373.077 838.5 372.991V372.99ZM848.216 369.351C848.408 371.176 848.17 372.594 847.617 372.971C847.495 373.057 847.335 373.095 847.146 373.095C846.298 373.095 845.041 372.307 843.705 370.869C844.316 370.121 844.881 369.325 845.397 368.487C846.275 368.382 847.145 368.206 848.002 367.962C848.097 368.444 848.169 368.907 848.216 369.351V369.351ZM849.792 366.165C849.44 366.342 849.055 366.5 848.658 366.647C848.407 365.655 848.1 364.683 847.737 363.739C848.113 362.746 848.416 361.776 848.645 360.845C849.035 360.986 849.419 361.148 849.796 361.332C851.246 362.053 852.184 362.999 852.184 363.749C852.18 364.498 851.242 365.449 849.792 366.165V366.165Z" fill="url(#paint13_linear_16_227)"/>
<path d="M843.042 365.931C843.539 365.931 844.015 365.701 844.366 365.292C844.717 364.882 844.914 364.327 844.914 363.748C844.914 363.169 844.717 362.614 844.366 362.204C844.015 361.795 843.539 361.565 843.042 361.565C842.546 361.565 842.07 361.795 841.719 362.204C841.368 362.614 841.17 363.169 841.17 363.748C841.17 364.327 841.368 364.882 841.719 365.292C842.07 365.701 842.546 365.931 843.042 365.931V365.931Z" fill="url(#paint14_linear_16_227)"/>
<path d="M723.624 336.445C724.693 335.729 725.759 335.007 726.831 334.299C727.849 333.626 729.046 334.246 729.277 335.555C729.41 336.312 729.121 337.13 728.535 337.528C726.613 338.834 724.689 340.135 722.755 341.416C722.156 341.812 721.54 341.739 720.994 341.253C720.44 340.76 720.265 340.08 720.395 339.288C720.544 338.686 720.883 338.283 721.346 337.981C722.112 337.483 722.865 336.958 723.624 336.445" fill="url(#paint15_linear_16_227)"/>
<path d="M724.409 335.925C723.343 335.203 722.274 334.488 721.212 333.759C720.203 333.067 720.065 331.548 720.922 330.66C721.417 330.147 722.169 330.031 722.758 330.423C724.689 331.711 726.617 333.004 728.535 334.317C729.129 334.723 729.383 335.383 729.295 336.176C729.206 336.982 728.788 337.499 728.135 337.764C727.613 337.915 727.144 337.774 726.689 337.457C725.936 336.932 725.169 336.434 724.409 335.925" fill="url(#paint16_linear_16_227)"/>
<path d="M714.693 335.414C714.009 335.868 713.325 336.32 712.641 336.775C712.242 337.04 711.846 337.315 711.444 337.577C710.635 338.104 709.673 337.795 709.214 336.867C708.776 335.981 709.028 334.833 709.807 334.302C711.714 333.005 713.625 331.717 715.543 330.443C716.131 330.052 716.741 330.101 717.285 330.568C717.86 331.061 718.047 331.755 717.919 332.568C717.839 332.765 717.791 332.995 717.671 333.15C717.476 333.403 717.255 333.644 717.008 333.821C716.246 334.37 715.466 334.886 714.693 335.414" fill="url(#paint17_linear_16_227)"/>
<path d="M713.909 335.922C714.587 336.386 715.265 336.851 715.945 337.314C716.342 337.585 716.744 337.847 717.139 338.122C717.935 338.676 718.187 339.801 717.727 340.729C717.288 341.614 716.31 341.934 715.526 341.412C713.609 340.136 711.697 338.85 709.792 337.55C709.208 337.151 708.939 336.51 709.014 335.727C709.093 334.901 709.514 334.364 710.182 334.088C710.368 334.07 710.563 334.003 710.738 334.046C711.023 334.117 711.313 334.22 711.568 334.38C712.356 334.876 713.13 335.406 713.909 335.922" fill="url(#paint18_linear_16_227)"/>
<path fill-rule="evenodd" clip-rule="evenodd" d="M127 395.295C123.134 395.295 120 399.211 120 404.041C120 408.871 123.134 412.788 127 412.788C130.866 412.788 134 408.871 134 404.041C134 399.211 130.866 395.295 127 395.295ZM127.082 409.156C124.825 409.156 122.998 406.868 122.998 404.041C122.998 401.215 124.825 398.926 127.082 398.926C128.184 398.926 129.106 399.434 129.813 400.259L128.661 401.701V401.698C128.233 401.186 127.689 400.924 127.082 400.924C125.734 400.924 124.639 402.35 124.639 404.038C124.639 405.726 125.734 407.156 127.082 407.156C128.304 407.156 129.136 406.28 129.308 405.077H127.082V403.082H130.923C130.974 403.425 131.002 403.782 131.002 404.156C131.002 407.079 129.44 409.156 127.082 409.156V409.156Z" fill="url(#paint19_linear_16_227)"/>
<path d="M140.754 473.43L142.232 475.826L149.714 473.43M132.979 492.089L137.027 487.516L134.591 484.495M140.14 473.43L137.977 475.682L141.616 475.838M131.731 473.431L132.507 475.271L136.79 475.578M134.023 482.971L137.187 476.153L128 475.577M134.391 483.402L137.38 487.111L140.676 483.379L141.698 476.425L137.682 476.186L134.391 483.402Z" fill="url(#paint20_linear_16_227)"/>
<ellipse cx="820" cy="432.5" rx="7" ry="6.5" fill="#693B93" fill-opacity="0.62"/>
<ellipse cx="125.5" cy="339" rx="4.5" ry="5" fill="#693B93" fill-opacity="0.62"/>
<defs>
<filter id="filter0_d_16_227" x="388.364" y="298.818" width="104.144" height="118" filterUnits="userSpaceOnUse" color-interpolation-filters="sRGB">
<feFlood flood-opacity="0" result="BackgroundImageFix"/>
<feColorMatrix in="SourceAlpha" type="matrix" values="0 0 0 0 0 0 0 0 0 0 0 0 0 0 0 0 0 0 127 0" result="hardAlpha"/>
<feOffset dy="1"/>
<feGaussianBlur stdDeviation="7"/>
<feComposite in2="hardAlpha" operator="out"/>
<feColorMatrix type="matrix" values="0 0 0 0 1 0 0 0 0 1 0 0 0 0 1 0 0 0 0.55 0"/>
<feBlend mode="normal" in2="BackgroundImageFix" result="effect1_dropShadow_16_227"/>
<feBlend mode="normal" in="SourceGraphic" in2="effect1_dropShadow_16_227" result="shape"/>
</filter>
<linearGradient id="paint0_linear_16_227" x1="522.786" y1="0.5" x2="522.786" y2="278" gradientUnits="userSpaceOnUse">
<stop stop-color="#3D1768"/>
<stop offset="1" stop-color="#3D1768" stop-opacity="0"/>
</linearGradient>
<linearGradient id="paint1_linear_16_227" x1="487.256" y1="17.5" x2="487.256" y2="287.5" gradientUnits="userSpaceOnUse">
<stop stop-color="#3D1768"/>
<stop offset="1" stop-color="#3D1768" stop-opacity="0"/>
</linearGradient>
<linearGradient id="paint2_linear_16_227" x1="445.75" y1="33" x2="445.75" y2="304" gradientUnits="userSpaceOnUse">
<stop stop-color="#3D1768"/>
<stop offset="1" stop-color="#3D1768" stop-opacity="0"/>
</linearGradient>
<linearGradient id="paint3_linear_16_227" x1="367.252" y1="35" x2="367.252" y2="310.5" gradientUnits="userSpaceOnUse">
<stop stop-color="#3D1768"/>
<stop offset="1" stop-color="#3D1768" stop-opacity="0"/>
</linearGradient>
<linearGradient id="paint4_linear_16_227" x1="401.423" y1="33" x2="401.423" y2="320" gradientUnits="userSpaceOnUse">
<stop stop-color="#3D1768"/>
<stop offset="1" stop-color="#3D1768" stop-opacity="0"/>
</linearGradient>
<linearGradient id="paint5_linear_16_227" x1="437" y1="39" x2="437" y2="336" gradientUnits="userSpaceOnUse">
<stop stop-color="#3D1768"/>
<stop offset="1" stop-color="#3D1768" stop-opacity="0"/>
</linearGradient>
<radialGradient id="paint6_radial_16_227" cx="0" cy="0" r="1" gradientUnits="userSpaceOnUse" gradientTransform="translate(452 407) rotate(90) scale(165 271)">
<stop stop-color="#763CAC"/>
<stop offset="1" stop-color="#320F85" stop-opacity="0"/>
</radialGradient>
<linearGradient id="paint7_linear_16_227" x1="440" y1="266" x2="440" y2="446" gradientUnits="userSpaceOnUse">
<stop stop-color="#301080" stop-opacity="0.6"/>
<stop offset="1" stop-color="#7840AD" stop-opacity="0.36"/>
</linearGradient>
<linearGradient id="paint8_linear_16_227" x1="440.5" y1="275" x2="440.5" y2="544" gradientUnits="userSpaceOnUse">
<stop stop-opacity="0"/>
<stop offset="0.479167" stop-color="#763CAC"/>
</linearGradient>
<linearGradient id="paint9_linear_16_227" x1="445" y1="275" x2="445" y2="544" gradientUnits="userSpaceOnUse">
<stop stop-opacity="0"/>
<stop offset="0.479167" stop-color="#763CAC"/>
</linearGradient>
<linearGradient id="paint10_linear_16_227" x1="455.5" y1="275" x2="455.5" y2="544" gradientUnits="userSpaceOnUse">
<stop stop-opacity="0"/>
<stop offset="0.479167" stop-color="#763CAC"/>
</linearGradient>
<linearGradient id="paint11_linear_16_227" x1="445" y1="203" x2="445" y2="478" gradientUnits="userSpaceOnUse">
<stop offset="0.197917" stop-opacity="0"/>
<stop offset="1" stop-color="#763CAC"/>
</linearGradient>
<linearGradient id="paint12_linear_16_227" x1="444.5" y1="294" x2="444.5" y2="458" gradientUnits="userSpaceOnUse">
<stop offset="0.197917" stop-opacity="0"/>
<stop offset="1" stop-color="#763CAC"/>
</linearGradient>
<linearGradient id="paint13_linear_16_227" x1="843.047" y1="353.312" x2="843.047" y2="374.18" gradientUnits="userSpaceOnUse">
<stop stop-color="#693B93" stop-opacity="0.53"/>
<stop offset="1" stop-color="#693B93"/>
</linearGradient>
<linearGradient id="paint14_linear_16_227" x1="843.042" y1="361.565" x2="843.042" y2="365.931" gradientUnits="userSpaceOnUse">
<stop stop-color="#693B93" stop-opacity="0.53"/>
<stop offset="1" stop-color="#693B93"/>
</linearGradient>
<linearGradient id="paint15_linear_16_227" x1="724.832" y1="334.025" x2="724.832" y2="341.671" gradientUnits="userSpaceOnUse">
<stop stop-color="#693B93" stop-opacity="0.53"/>
<stop offset="1" stop-color="#693B93"/>
</linearGradient>
<linearGradient id="paint16_linear_16_227" x1="724.835" y1="330.189" x2="724.835" y2="337.825" gradientUnits="userSpaceOnUse">
<stop stop-color="#693B93" stop-opacity="0.53"/>
<stop offset="1" stop-color="#693B93"/>
</linearGradient>
<linearGradient id="paint17_linear_16_227" x1="713.479" y1="330.181" x2="713.479" y2="337.833" gradientUnits="userSpaceOnUse">
<stop stop-color="#693B93" stop-opacity="0.53"/>
<stop offset="1" stop-color="#693B93"/>
</linearGradient>
<linearGradient id="paint18_linear_16_227" x1="713.479" y1="334.032" x2="713.479" y2="341.664" gradientUnits="userSpaceOnUse">
<stop stop-color="#693B93" stop-opacity="0.53"/>
<stop offset="1" stop-color="#693B93"/>
</linearGradient>
<linearGradient id="paint19_linear_16_227" x1="127" y1="395.295" x2="127" y2="412.788" gradientUnits="userSpaceOnUse">
<stop stop-color="#693B93" stop-opacity="0.53"/>
<stop offset="1" stop-color="#693B93"/>
</linearGradient>
<linearGradient id="paint20_linear_16_227" x1="138.857" y1="473.43" x2="138.857" y2="492.089" gradientUnits="userSpaceOnUse">
<stop stop-color="#693B93" stop-opacity="0.53"/>
<stop offset="1" stop-color="#693B93"/>
</linearGradient>
</defs>
</svg>
